HIERARCHY
ROOT joint_Root
{
	OFFSET 0.0 0.0 0.0
	CHANNELS 6 Xposition Yposition Zposition Zrotation Xrotation Yrotation 
	JOINT Hips
	{
		OFFSET -0.726466 93.3139 -2.00062
		CHANNELS 6 Xposition Yposition Zposition Zrotation Xrotation Yrotation 
		JOINT Spine
		{
			OFFSET 15.7357 0.0 0.0
			CHANNELS 6 Xposition Yposition Zposition Zrotation Xrotation Yrotation 
			JOINT Chest
			{
				OFFSET 8.98455 -0.406207 0.0
				CHANNELS 6 Xposition Yposition Zposition Zrotation Xrotation Yrotation 
				JOINT Neck
				{
					OFFSET 16.3773 0.0 0.0
					CHANNELS 6 Xposition Yposition Zposition Zrotation Xrotation Yrotation 
					JOINT Head
					{
						OFFSET 6.45672 0.0 0.0
						CHANNELS 6 Xposition Yposition Zposition Zrotation Xrotation Yrotation 
						End Site
						{
							OFFSET 0.0 0.0 0.0
						}
					}
				}
				JOINT Shoulder_L
				{
					OFFSET 12.9942 -0.242716 4.98039
					CHANNELS 6 Xposition Yposition Zposition Zrotation Xrotation Yrotation 
					JOINT UpperArm_L
					{
						OFFSET 5.34809 0.0 0.0
						CHANNELS 6 Xposition Yposition Zposition Zrotation Xrotation Yrotation 
						JOINT LowerArm_L
						{
							OFFSET 24.3286 1.87007e-05 0.0
							CHANNELS 6 Xposition Yposition Zposition Zrotation Xrotation Yrotation 
							JOINT Hand_L
							{
								OFFSET 22.2916 0.0 0.0
								CHANNELS 6 Xposition Yposition Zposition Zrotation Xrotation Yrotation 
								End Site
								{
									OFFSET 0.0 0.0 0.0
								}
							}
						}
					}
				}
				JOINT Shoulder_R
				{
					OFFSET 12.9945 -0.242716 -4.98039
					CHANNELS 6 Xposition Yposition Zposition Zrotation Xrotation Yrotation 
					JOINT UpperArm_R
					{
						OFFSET -5.34813 0.0 0.0
						CHANNELS 6 Xposition Yposition Zposition Zrotation Xrotation Yrotation 
						JOINT LowerArm_R
						{
							OFFSET -24.3289 0.000322201 0.0
							CHANNELS 6 Xposition Yposition Zposition Zrotation Xrotation Yrotation 
							JOINT Hand_R
							{
								OFFSET -22.2915 -0.000108084 0.0
								CHANNELS 6 Xposition Yposition Zposition Zrotation Xrotation Yrotation 
								End Site
								{
									OFFSET 0.0 0.0 0.0
								}
							}
						}
					}
				}
			}
		}
		JOINT UpperLeg_L
		{
			OFFSET -2.19248 -6.46944 0.0
			CHANNELS 6 Xposition Yposition Zposition Zrotation Xrotation Yrotation 
			JOINT LowerLeg_L
			{
				OFFSET 39.0811 0.0 -1.23785e-05
				CHANNELS 6 Xposition Yposition Zposition Zrotation Xrotation Yrotation 
				JOINT Foot_L
				{
					OFFSET 40.9854 0.0 -1.26872e-05
					CHANNELS 6 Xposition Yposition Zposition Zrotation Xrotation Yrotation 
					JOINT Toes_L
					{
						OFFSET 11.7543 0.0 0.0
						CHANNELS 6 Xposition Yposition Zposition Zrotation Xrotation Yrotation 
						End Site
						{
							OFFSET 0.0 0.0 0.0
						}
					}
				}
			}
		}
		JOINT UpperLeg_R
		{
			OFFSET -2.19251 6.46944 0.0
			CHANNELS 6 Xposition Yposition Zposition Zrotation Xrotation Yrotation 
			JOINT LowerLeg_R
			{
				OFFSET -39.0811 -0.00228153 -0.0401928
				CHANNELS 6 Xposition Yposition Zposition Zrotation Xrotation Yrotation 
				JOINT Foot_R
				{
					OFFSET -40.9854 0.0 0.0
					CHANNELS 6 Xposition Yposition Zposition Zrotation Xrotation Yrotation 
					JOINT Toes_R
					{
						OFFSET -11.7543 0.0 0.0
						CHANNELS 6 Xposition Yposition Zposition Zrotation Xrotation Yrotation 
						End Site
						{
							OFFSET 0.0 0.0 0.0
						}
					}
				}
			}
		}
	}
}
MOTION
Frames:	6
Frame Time:	0.0333333
0.000000 0.000000 0.000000 0.000000 0.000000 -0.000000 -1.484180 92.276100 -3.042410 87.559300 -0.295364 3.478000 15.735700 0.000005 -0.000001 78.678300 87.712600 -78.420700 8.984550 -0.406207 -0.000000 -3.278300 -0.922509 0.489017 16.377300 -0.000001 -0.000001 -1.031360 -1.304020 -0.891090 6.456720 -0.000001 -0.000000 -2.487720 -1.300930 5.967470 12.994200 -0.242716 4.980390 -83.819500 -12.286700 -63.029400 5.348090 -0.000007 -0.000001 -72.888600 -56.283100 -105.115000 24.328600 0.000019 0.000005 7.391850 3.779750 -63.063300 22.291600 -0.000001 0.000005 23.786200 5.567930 -9.582930 12.994500 -0.242716 -4.980390 92.173700 -4.765510 -65.445400 -5.348130 -0.000001 -0.000004 -53.610100 -56.906200 -104.008000 -24.328900 0.000322 -0.000009 2.208450 1.609930 -53.940900 -22.291500 -0.000108 -0.000004 27.202700 5.506530 -6.798910 -2.192480 -6.469440 -0.000000 -168.052000 -15.822300 -3.046910 39.081100 -0.000007 -0.000012 -0.152480 0.425801 19.702700 40.985400 -0.000006 -0.000013 -6.820800 2.921250 -61.075500 11.754300 -0.000000 0.000003 -0.000124 -0.001235 -16.624700 -2.192510 6.469440 -0.000001 175.404000 19.684300 178.293000 -39.081100 -0.002282 -0.040193 0.017640 -0.041252 19.140500 -40.985400 0.000008 0.000006 -0.954110 1.793370 -62.338500 -11.754300 -0.000006 -0.000006 -0.006613 -0.076305 -19.679100
0.000000 0.000000 0.000000 0.000000 0.000000 -0.000000 -1.486960 92.278400 -3.048320 87.575300 -0.357812 3.466300 15.735700 0.000005 -0.000001 78.763800 87.706500 -78.518600 8.984550 -0.406207 -0.000000 -3.265050 -0.916984 0.464306 16.377300 -0.000001 -0.000001 -0.992882 -1.296880 -0.899115 6.456720 -0.000001 -0.000000 -2.487850 -1.316220 5.947300 12.994200 -0.242716 4.980390 -83.808400 -12.287700 -62.989500 5.348090 -0.000007 -0.000001 -73.382700 -56.279000 -105.443000 24.328600 0.000019 0.000005 7.376120 3.783930 -62.987900 22.291600 -0.000001 0.000005 23.890200 5.566070 -9.489510 12.994500 -0.242716 -4.980390 92.177200 -4.770890 -65.435000 -5.348130 -0.000001 -0.000004 -53.467000 -56.871200 -103.888000 -24.328900 0.000322 -0.000009 2.221490 1.618830 -53.951200 -22.291500 -0.000108 -0.000004 27.221300 5.506730 -6.806940 -2.192480 -6.469440 -0.000000 -168.063000 -15.832300 -3.022580 39.081100 -0.000007 -0.000012 -0.153097 0.428637 19.655400 40.985400 -0.000006 -0.000013 -6.831160 2.902910 -61.058400 11.754300 -0.000000 0.000003 -0.000137 -0.001349 -16.628900 -2.192510 6.469440 -0.000001 175.392000 19.654900 178.287000 -39.081100 -0.002282 -0.040193 0.017533 -0.040984 19.122800 -40.985400 0.000008 0.000006 -1.003040 1.849820 -62.327600 -11.754300 -0.000006 -0.000006 -0.006602 -0.076210 -19.675200
0.000000 0.000000 0.000000 0.000000 0.000000 -0.000000 -1.494410 92.275800 -3.054730 87.540000 -0.393572 3.445370 15.735700 0.000005 -0.000001 79.034300 87.691100 -78.789400 8.984550 -0.406207 -0.000000 -3.230760 -0.901484 0.464426 16.377300 -0.000001 -0.000001 -0.988989 -1.271690 -0.898413 6.456720 -0.000001 -0.000000 -2.507820 -1.290370 5.963690 12.994200 -0.242716 4.980390 -83.791000 -12.302100 -62.950500 5.348090 -0.000007 -0.000001 -74.097400 -56.192200 -105.963000 24.328600 0.000019 0.000005 7.398070 3.801200 -62.952200 22.291600 -0.000001 0.000005 23.951400 5.567490 -9.560630 12.994500 -0.242716 -4.980390 92.169000 -4.749190 -65.417900 -5.348130 -0.000001 -0.000004 -53.646800 -56.842800 -104.094000 -24.328900 0.000322 -0.000009 2.254400 1.646130 -53.896600 -22.291500 -0.000108 -0.000004 27.093500 5.503410 -6.671430 -2.192480 -6.469440 -0.000000 -168.029000 -15.844500 -3.064790 39.081100 -0.000007 -0.000012 -0.152741 0.426442 19.706400 40.985400 -0.000006 -0.000013 -6.834200 2.897450 -61.083900 11.754300 -0.000000 0.000003 -0.000138 -0.001351 -16.629000 -2.192510 6.469440 -0.000001 175.438000 19.620900 178.257000 -39.081100 -0.002282 -0.040193 0.016319 -0.037505 19.111800 -40.985400 0.000008 0.000006 -1.014110 1.867660 -62.312300 -11.754300 -0.000006 -0.000006 -0.006465 -0.075003 -19.626000
0.000000 0.000000 0.000000 0.000000 0.000000 -0.000000 -1.498780 92.285200 -3.081910 87.519000 -0.439055 3.373560 15.735700 0.000005 -0.000001 79.338900 87.696300 -79.093400 8.984550 -0.406207 -0.000000 -3.236350 -0.875535 0.466275 16.377300 -0.000001 -0.000001 -0.960804 -1.281360 -0.865319 6.456720 -0.000001 -0.000000 -2.505200 -1.359040 5.909570 12.994200 -0.242716 4.980390 -83.808900 -12.251400 -62.923700 5.348090 -0.000007 -0.000001 -74.456100 -56.152100 -106.291000 24.328600 0.000019 0.000005 7.360380 3.791880 -62.889100 22.291600 -0.000001 0.000005 24.108100 5.565480 -9.459490 12.994500 -0.242716 -4.980390 92.173200 -4.755590 -65.405200 -5.348130 -0.000001 -0.000004 -53.786500 -56.842700 -104.259000 -24.328900 0.000322 -0.000009 2.302390 1.685210 -53.831400 -22.291500 -0.000108 -0.000004 27.131900 5.500880 -6.569010 -2.192480 -6.469440 -0.000000 -168.028000 -15.858500 -3.112780 39.081100 -0.000007 -0.000012 -0.151603 0.424590 19.649700 40.985400 -0.000006 -0.000013 -6.845410 2.845390 -61.048900 11.754300 -0.000000 0.000003 -0.000126 -0.001251 -16.625300 -2.192510 6.469440 -0.000001 175.513000 19.650600 178.174000 -39.081100 -0.002282 -0.040193 0.019350 -0.046367 19.068100 -40.985400 0.000008 0.000006 -0.925944 1.894010 -62.273600 -11.754300 -0.000006 -0.000006 -0.006744 -0.077447 -19.725700
0.000000 0.000000 0.000000 0.000000 0.000000 -0.000000 -1.495120 92.282600 -3.091480 87.523400 -0.461710 3.351720 15.735700 0.000005 -0.000001 79.632300 87.676200 -79.407900 8.984550 -0.406207 -0.000000 -3.192720 -0.857485 0.425052 16.377300 -0.000001 -0.000001 -0.947968 -1.290060 -0.868673 6.456720 -0.000001 -0.000000 -2.453190 -1.356990 6.001680 12.994200 -0.242716 4.980390 -83.786100 -12.275100 -62.881800 5.348090 -0.000007 -0.000001 -74.697700 -56.192900 -106.473000 24.328600 0.000019 0.000005 7.391060 3.809710 -62.877900 22.291600 -0.000001 0.000005 24.181200 5.566580 -9.514820 12.994500 -0.242716 -4.980390 92.173900 -4.756140 -65.400900 -5.348130 -0.000001 -0.000004 -53.976000 -56.853300 -104.411000 -24.328900 0.000322 -0.000009 2.334640 1.712620 -53.771200 -22.291500 -0.000108 -0.000004 27.162100 5.501940 -6.611600 -2.192480 -6.469440 -0.000000 -168.055000 -15.908200 -3.173570 39.081100 -0.000007 -0.000012 -0.150474 0.420139 19.705300 40.985400 -0.000006 -0.000013 -6.827520 2.829530 -61.062600 11.754300 -0.000000 0.000003 -0.000116 -0.001165 -16.622100 -2.192510 6.469440 -0.000001 175.494000 19.657000 178.149000 -39.081100 -0.002282 -0.040193 0.017046 -0.039713 19.063200 -40.985400 0.000008 0.000006 -1.010880 1.952630 -62.257200 -11.754300 -0.000006 -0.000006 -0.006612 -0.076296 -19.678700
0.000000 0.000000 0.000000 0.000000 0.000000 -0.000000 -1.492340 92.292300 -3.109720 87.521300 -0.458610 3.349600 15.735700 0.000005 -0.000001 79.816000 87.644700 -79.596400 8.984550 -0.406207 -0.000000 -3.128150 -0.853383 0.415881 16.377300 -0.000001 -0.000001 -0.886814 -1.294280 -0.842550 6.456720 -0.000001 -0.000000 -2.524020 -1.366270 5.954650 12.994200 -0.242716 4.980390 -83.791400 -12.259800 -62.873400 5.348090 -0.000007 -0.000001 -74.638300 -56.340400 -106.343000 24.328600 0.000019 0.000005 7.552980 3.864370 -63.056500 22.291600 -0.000001 0.000005 24.273500 5.564140 -9.392230 12.994500 -0.242716 -4.980390 92.177500 -4.749850 -65.335900 -5.348130 -0.000001 -0.000004 -54.170100 -56.834200 -104.627000 -24.328900 0.000322 -0.000009 2.322530 1.702330 -53.793600 -22.291500 -0.000108 -0.000004 27.186400 5.501000 -6.574150 -2.192480 -6.469440 -0.000000 -168.054000 -15.895100 -3.149360 39.081100 -0.000007 -0.000012 -0.150895 0.423153 19.626200 40.985400 -0.000006 -0.000013 -6.833920 2.806700 -61.012400 11.754300 -0.000000 0.000003 -0.000119 -0.001193 -16.623200 -2.192510 6.469440 -0.000001 175.507000 19.721300 178.154000 -39.081100 -0.002282 -0.040193 0.018188 -0.043129 19.016800 -40.985400 0.000008 0.000006 -0.931548 1.977920 -62.221300 -11.754300 -0.000006 -0.000006 -0.006497 -0.075285 -19.637500
